<svg width="77" height="19" viewBox="0 0 77 19" fill="none" xmlns="http://www.w3.org/2000/svg">
<path fill-rule="evenodd" clip-rule="evenodd" d="M12.3388 0.501612C12.259 0.351859 12.1312 0.225032 11.9707 0.136137C11.8102 0.0472422 11.6236 0 11.4331 0C11.2425 0 11.056 0.0472422 10.8954 0.136137C10.7349 0.225032 10.6072 0.351859 10.5274 0.501612L7.66453 5.87144L0.880534 6.56813C0.691259 6.58748 0.512348 6.65335 0.364975 6.75794C0.217603 6.86254 0.107938 7.00149 0.0489607 7.15834C-0.0100169 7.3152 -0.0158386 7.4834 0.0321845 7.64303C0.0802077 7.80266 0.180065 7.94704 0.319939 8.05908L5.33736 12.0735L4.0057 17.875C3.96871 18.0367 3.986 18.2042 4.05552 18.3577C4.12504 18.5112 4.24389 18.6442 4.39801 18.7411C4.55212 18.838 4.73507 18.8947 4.92522 18.9044C5.11537 18.9142 5.30477 18.8766 5.47103 18.7961L11.4331 15.9075L17.3951 18.7961C17.5615 18.8769 17.7511 18.9148 17.9416 18.9051C18.132 18.8955 18.3153 18.8388 18.4696 18.7417C18.6239 18.6447 18.7429 18.5114 18.8123 18.3576C18.8818 18.2038 18.8988 18.036 18.8615 17.8741L17.5298 12.0744L22.5462 8.05908C22.6861 7.94704 22.786 7.80266 22.834 7.64303C22.882 7.4834 22.8762 7.3152 22.8172 7.15834C22.7582 7.00149 22.6486 6.86254 22.5012 6.75794C22.3538 6.65335 22.1749 6.58748 21.9856 6.56813L15.2006 5.87058L12.3388 0.501612Z" fill="#F2CB01"/>
<path fill-rule="evenodd" clip-rule="evenodd" d="M39.3388 0.501612C39.259 0.351859 39.1312 0.225032 38.9707 0.136137C38.8102 0.0472422 38.6236 0 38.4331 0C38.2425 0 38.056 0.0472422 37.8954 0.136137C37.7349 0.225032 37.6072 0.351859 37.5274 0.501612L34.6645 5.87144L27.8805 6.56813C27.6913 6.58748 27.5123 6.65335 27.365 6.75794C27.2176 6.86254 27.1079 7.00149 27.049 7.15834C26.99 7.3152 26.9842 7.4834 27.0322 7.64303C27.0802 7.80266 27.1801 7.94704 27.3199 8.05908L32.3374 12.0735L31.0057 17.875C30.9687 18.0367 30.986 18.2042 31.0555 18.3577C31.125 18.5112 31.2439 18.6442 31.398 18.7411C31.5521 18.838 31.7351 18.8947 31.9252 18.9044C32.1154 18.9142 32.3048 18.8766 32.471 18.7961L38.4331 15.9075L44.3951 18.7961C44.5615 18.8769 44.7511 18.9148 44.9416 18.9051C45.132 18.8955 45.3153 18.8388 45.4696 18.7417C45.6239 18.6447 45.7429 18.5114 45.8123 18.3576C45.8818 18.2038 45.8988 18.036 45.8615 17.8741L44.5298 12.0744L49.5462 8.05908C49.6861 7.94704 49.786 7.80266 49.834 7.64303C49.882 7.4834 49.8762 7.3152 49.8172 7.15834C49.7582 7.00149 49.6486 6.86254 49.5012 6.75794C49.3538 6.65335 49.1749 6.58748 48.9856 6.56813L42.2006 5.87058L39.3388 0.501612Z" fill="#F2CB01"/>
<path fill-rule="evenodd" clip-rule="evenodd" d="M66.3388 0.501612C66.259 0.351859 66.1312 0.225032 65.9707 0.136137C65.8102 0.0472422 65.6236 0 65.4331 0C65.2425 0 65.056 0.0472422 64.8954 0.136137C64.7349 0.225032 64.6072 0.351859 64.5274 0.501612L61.6645 5.87144L54.8805 6.56813C54.6913 6.58748 54.5123 6.65335 54.365 6.75794C54.2176 6.86254 54.1079 7.00149 54.049 7.15834C53.99 7.3152 53.9842 7.4834 54.0322 7.64303C54.0802 7.80266 54.1801 7.94704 54.3199 8.05908L59.3374 12.0735L58.0057 17.875C57.9687 18.0367 57.986 18.2042 58.0555 18.3577C58.125 18.5112 58.2439 18.6442 58.398 18.7411C58.5521 18.838 58.7351 18.8947 58.9252 18.9044C59.1154 18.9142 59.3048 18.8766 59.471 18.7961L65.4331 15.9075L71.3951 18.7961C71.5615 18.8769 71.7511 18.9148 71.9416 18.9051C72.132 18.8955 72.3153 18.8388 72.4696 18.7417C72.6239 18.6447 72.7429 18.5114 72.8123 18.3576C72.8818 18.2038 72.8988 18.036 72.8615 17.8741L71.5298 12.0744L76.5462 8.05908C76.6861 7.94704 76.786 7.80266 76.834 7.64303C76.882 7.4834 76.8762 7.3152 76.8172 7.15834C76.7582 7.00149 76.6486 6.86254 76.5012 6.75794C76.3538 6.65335 76.1749 6.58748 75.9856 6.56813L69.2006 5.87058L66.3388 0.501612Z" fill="#F2CB01"/>
</svg>
