<!-- Generated by IcoMoon.io -->
<svg version="1.1" xmlns="http://www.w3.org/2000/svg" width="7060" height="1024" viewBox="0 0 7060 1024">
<g id="icomoon-ignore">
</g>
<path fill="#f2cb01" d="M664.996 27.034c-4.301-8.071-11.189-14.906-19.839-19.697s-18.707-7.337-28.974-7.337c-10.272 0-20.324 2.546-28.979 7.337-8.65 4.791-15.532 11.626-19.833 19.697l-154.294 289.405-365.622 37.548c-10.201 1.043-19.843 4.593-27.786 10.23s-13.853 13.126-17.032 21.579c-3.179 8.454-3.492 17.519-0.904 26.122s7.97 16.385 15.508 22.423l270.413 216.356-71.769 312.67c-1.994 8.715-1.062 17.742 2.685 26.015s10.152 15.441 18.458 20.663c8.306 5.222 18.166 8.278 28.414 8.801 10.248 0.528 20.456-1.498 29.416-5.837l321.324-155.68 321.32 155.68c8.968 4.355 19.187 6.397 29.453 5.875 10.262-0.517 20.14-3.573 28.456-8.806 8.316-5.228 14.729-12.412 18.47-20.701 3.746-8.289 4.662-17.333 2.652-26.058l-71.772-312.573 270.358-216.405c7.54-6.038 12.924-13.82 15.511-22.423s2.274-17.668-0.905-26.122c-3.18-8.453-9.087-15.942-17.031-21.579s-17.586-9.187-27.788-10.23l-365.676-37.594-154.236-289.359z"></path>
<path fill="#f2cb01" d="M2120.154 27.034c-4.301-8.071-11.189-14.906-19.839-19.697s-18.707-7.337-28.974-7.337c-10.272 0-20.324 2.546-28.979 7.337-8.65 4.791-15.532 11.626-19.833 19.697l-154.295 289.405-365.622 37.548c-10.197 1.043-19.844 4.593-27.783 10.23-7.944 5.637-13.856 13.126-17.031 21.579-3.18 8.454-3.492 17.519-0.905 26.122s7.971 16.385 15.506 22.423l270.417 216.356-71.772 312.67c-1.994 8.715-1.062 17.742 2.684 26.015s10.154 15.441 18.459 20.663c8.305 5.222 18.168 8.278 28.413 8.801 10.251 0.528 20.458-1.498 29.416-5.837l321.326-155.68 321.32 155.68c8.968 4.355 19.187 6.397 29.453 5.875 10.262-0.517 20.14-3.573 28.456-8.806 8.316-5.228 14.729-12.412 18.47-20.701 3.746-8.289 4.662-17.333 2.652-26.058l-71.772-312.573 270.358-216.405c7.54-6.038 12.924-13.82 15.511-22.423s2.274-17.668-0.905-26.122c-3.18-8.453-9.087-15.942-17.031-21.579s-17.586-9.187-27.788-10.23l-365.676-37.594-154.236-289.359z"></path>
<path fill="#f2cb01" d="M3575.312 27.034c-4.301-8.071-11.189-14.906-19.839-19.697s-18.707-7.337-28.974-7.337c-10.272 0-20.324 2.546-28.979 7.337-8.65 4.791-15.532 11.626-19.833 19.697l-154.295 289.405-365.622 37.548c-10.197 1.043-19.844 4.593-27.783 10.23-7.944 5.637-13.856 13.126-17.031 21.579-3.18 8.454-3.492 17.519-0.905 26.122s7.971 16.385 15.506 22.423l270.417 216.356-71.772 312.67c-1.994 8.715-1.062 17.742 2.684 26.015s10.154 15.441 18.459 20.663c8.305 5.222 18.168 8.278 28.413 8.801 10.251 0.528 20.458-1.498 29.416-5.837l321.326-155.68 321.32 155.68c8.968 4.355 19.192 6.397 29.453 5.875 10.262-0.517 20.14-3.573 28.456-8.806 8.316-5.228 14.729-12.412 18.47-20.701 3.746-8.289 4.662-17.333 2.652-26.058l-71.772-312.573 270.358-216.405c7.54-6.038 12.924-13.82 15.511-22.423s2.274-17.668-0.905-26.122c-3.18-8.453-9.087-15.942-17.031-21.579s-17.586-9.187-27.788-10.23l-365.676-37.594-154.236-289.359z"></path>
<path fill="#f2cb01" d="M5030.47 27.034c-4.301-8.071-11.189-14.906-19.839-19.697s-18.707-7.337-28.974-7.337c-10.272 0-20.324 2.546-28.979 7.337-8.65 4.791-15.532 11.626-19.833 19.697l-154.295 289.405-365.622 37.548c-10.197 1.043-19.844 4.593-27.783 10.23-7.944 5.637-13.856 13.126-17.031 21.579-3.18 8.454-3.492 17.519-0.905 26.122s7.971 16.385 15.506 22.423l270.417 216.356-71.772 312.67c-1.994 8.715-1.062 17.742 2.684 26.015s10.154 15.441 18.459 20.663c8.305 5.222 18.168 8.278 28.413 8.801 10.251 0.528 20.458-1.498 29.416-5.837l321.326-155.68 321.32 155.68c8.968 4.355 19.192 6.397 29.453 5.875 10.262-0.517 20.14-3.573 28.456-8.806 8.316-5.228 14.729-12.412 18.47-20.701 3.746-8.289 4.662-17.333 2.652-26.058l-71.772-312.573 270.347-216.405c7.545-6.038 12.935-13.82 15.522-22.423s2.264-17.668-0.916-26.122c-3.18-8.453-9.054-15.942-17.031-21.579-7.923-5.637-17.57-9.187-27.756-10.23l-365.697-37.594-154.236-289.359z"></path>
<path fill="#f2cb01" d="M6485.639 27.034c-4.312-8.071-11.21-14.906-19.833-19.697-8.677-4.791-18.701-7.337-28.995-7.337-10.24 0-20.318 2.546-28.995 7.337-8.623 4.791-15.522 11.626-19.833 19.697l-154.247 289.405-365.622 37.548c-10.24 1.043-19.887 4.593-27.81 10.23s-13.851 13.126-17.031 21.579c-3.18 8.454-3.503 17.519-0.916 26.122s7.976 16.385 15.522 22.423l270.39 216.356-71.734 312.67c-1.994 8.715-1.078 17.742 2.695 26.015 3.719 8.273 10.132 15.441 18.432 20.663s18.163 8.278 28.403 8.801c10.24 0.528 20.48-1.498 29.427-5.837l321.32-155.68 321.32 155.68c9 4.355 19.187 6.397 29.48 5.875 10.24-0.517 20.103-3.573 28.456-8.806 8.3-5.228 14.713-12.412 18.432-20.701 3.773-8.289 4.689-17.333 2.641-26.058l-71.734-312.573 270.336-216.405c7.545-6.038 12.935-13.82 15.522-22.423s2.264-17.668-0.916-26.122c-3.18-8.453-9.054-15.942-17.031-21.579-7.923-5.637-17.57-9.187-27.756-10.23l-365.676-37.594-154.247-289.359z"></path>
</svg>
