<svg width="129" height="39" viewBox="0 0 129 39" fill="none" xmlns="http://www.w3.org/2000/svg">
<path d="M20.4776 0L38.2116 9.34517V28.0355L20.4776 37.3807L2.74347 28.0355V9.34517L20.4776 0Z" fill="#D9D9D9"/>
<path d="M64.3584 0.73291L82.0925 10.0781V28.7684L64.3584 38.1136L46.6243 28.7684V10.0781L64.3584 0.73291Z" fill="#D9D9D9"/>
<path d="M59.0147 7.64453H68.5368C72.1642 7.64453 75.1115 10.5983 75.1115 14.2338V23.7769C75.1115 25.5244 74.4188 27.2004 73.1858 28.4362C71.9528 29.6719 70.2805 30.3661 68.5368 30.3661H59.0147C55.3872 30.3661 52.4399 27.4123 52.4399 23.7769V14.2338C52.4399 12.4862 53.1326 10.8102 54.3656 9.57448C55.5986 8.33876 57.271 7.64453 59.0147 7.64453ZM58.788 9.91669C57.7057 9.91669 56.6677 10.3476 55.9024 11.1146C55.137 11.8816 54.7071 12.9219 54.7071 14.0066V24.0041C54.7071 26.2649 56.5322 28.094 58.788 28.094H68.7635C69.8458 28.094 70.8838 27.6631 71.6491 26.8961C72.4144 26.1291 72.8444 25.0888 72.8444 24.0041V14.0066C72.8444 11.7458 71.0193 9.91669 68.7635 9.91669H58.788ZM69.727 11.6208C70.1028 11.6208 70.4632 11.7704 70.729 12.0367C70.9947 12.3031 71.144 12.6643 71.144 13.0409C71.144 13.4175 70.9947 13.7788 70.729 14.0451C70.4632 14.3114 70.1028 14.461 69.727 14.461C69.3512 14.461 68.9908 14.3114 68.7251 14.0451C68.4593 13.7788 68.31 13.4175 68.31 13.0409C68.31 12.6643 68.4593 12.3031 68.7251 12.0367C68.9908 11.7704 69.3512 11.6208 69.727 11.6208ZM63.7757 13.3249C65.279 13.3249 66.7206 13.9234 67.7835 14.9887C68.8465 16.054 69.4436 17.4988 69.4436 19.0053C69.4436 20.5119 68.8465 21.9567 67.7835 23.022C66.7206 24.0873 65.279 24.6857 63.7757 24.6857C62.2725 24.6857 60.8309 24.0873 59.7679 23.022C58.705 21.9567 58.1078 20.5119 58.1078 19.0053C58.1078 17.4988 58.705 16.054 59.7679 14.9887C60.8309 13.9234 62.2725 13.3249 63.7757 13.3249ZM63.7757 15.5971C62.8738 15.5971 62.0088 15.9562 61.371 16.5953C60.7333 17.2345 60.375 18.1014 60.375 19.0053C60.375 19.9092 60.7333 20.7761 61.371 21.4153C62.0088 22.0545 62.8738 22.4136 63.7757 22.4136C64.6777 22.4136 65.5427 22.0545 66.1804 21.4153C66.8182 20.7761 67.1765 19.9092 67.1765 19.0053C67.1765 18.1014 66.8182 17.2345 66.1804 16.5953C65.5427 15.9562 64.6777 15.5971 63.7757 15.5971Z" fill="#111111"/>
<path d="M108.238 0.73291L125.972 10.0781V28.7684L108.238 38.1136L90.5042 28.7684V10.0781L108.238 0.73291Z" fill="#D9D9D9"/>
<path d="M115.905 10.6356C114.86 9.58355 113.616 8.74938 112.245 8.18177C110.874 7.61417 109.403 7.3245 107.918 7.32966C101.698 7.32966 96.6283 12.3852 96.6283 18.5882C96.6283 20.5763 97.1523 22.5076 98.1321 24.2117L96.5371 30.0512L102.518 28.4834C104.17 29.3809 106.027 29.858 107.918 29.858C114.139 29.858 119.209 24.8025 119.209 18.5995C119.209 15.5889 118.035 12.7601 115.905 10.6356ZM107.918 27.9494C106.232 27.9494 104.58 27.495 103.134 26.643L102.792 26.4385L99.2372 27.37L100.183 23.9164L99.9549 23.5642C99.0182 22.0725 98.5207 20.3482 98.5194 18.5882C98.5194 13.4304 102.735 9.2269 107.907 9.2269C110.413 9.2269 112.772 10.2039 114.538 11.9762C115.412 12.8441 116.105 13.8765 116.576 15.0134C117.048 16.1504 117.288 17.3693 117.283 18.5995C117.306 23.7573 113.091 27.9494 107.918 27.9494ZM113.068 20.9512C112.783 20.8149 111.393 20.1332 111.143 20.031C110.881 19.9401 110.698 19.8947 110.505 20.1673C110.311 20.4513 109.775 21.0875 109.616 21.2693C109.456 21.4624 109.286 21.4852 109.001 21.3375C108.716 21.2011 107.805 20.8944 106.734 19.9401C105.891 19.1903 105.332 18.2701 105.161 17.9861C105.002 17.702 105.139 17.5543 105.287 17.4067C105.412 17.2817 105.572 17.0772 105.708 16.9181C105.845 16.7591 105.902 16.6341 105.993 16.4523C106.084 16.2592 106.039 16.1002 105.97 15.9638C105.902 15.8275 105.332 14.4415 105.104 13.8735C104.877 13.3281 104.637 13.3963 104.466 13.3849H103.92C103.726 13.3849 103.43 13.4531 103.168 13.7371C102.917 14.0211 102.188 14.7028 102.188 16.0888C102.188 17.4748 103.202 18.8154 103.339 18.9972C103.475 19.1903 105.332 22.0305 108.158 23.2461C108.83 23.5415 109.354 23.7119 109.764 23.8368C110.436 24.0527 111.051 24.0186 111.541 23.9504C112.088 23.8709 113.216 23.2688 113.444 22.6099C113.683 21.951 113.683 21.3943 113.603 21.2693C113.524 21.1443 113.353 21.0875 113.068 20.9512Z" fill="#111111"/>
<path d="M18.1406 31.6534V19.6161H14.9668V15.2821H18.1406V11.5803C18.1406 8.67134 20.0154 6 24.3353 6C26.0843 6 27.3777 6.16816 27.3777 6.16816L27.2758 10.2154C27.2758 10.2154 25.9568 10.2025 24.5174 10.2025C22.9596 10.2025 22.71 10.9225 22.71 12.1174V15.2821H27.3996L27.1955 19.6161H22.71V31.6534H18.1406Z" fill="#111111"/>
</svg>
