<!-- Generated by IcoMoon.io -->
<svg version="1.1" xmlns="http://www.w3.org/2000/svg" width="1280" height="1024" viewBox="0 0 1280 1024">
<g id="icomoon-ignore">
</g>
<path fill="#fff" d="M127.718 1024c-35.123 0-65.179-12.525-90.169-37.568s-37.507-55.187-37.549-90.432v-768c0-35.2 12.516-65.323 37.549-90.368s55.089-37.589 90.169-37.632h1021.747c35.123 0 65.197 12.544 90.234 37.632 25.030 25.088 37.523 55.211 37.485 90.368v768c0 35.2-12.499 65.344-37.485 90.432-24.992 25.088-55.072 37.613-90.234 37.568h-1021.747zM638.591 576l510.874-320v-128l-510.874 320-510.873-320v128l510.873 320z"></path>
</svg>
