<svg width="147" height="94" viewBox="0 0 147 94" fill="none" xmlns="http://www.w3.org/2000/svg">
<path d="M124.711 91.6824C123.333 91.6824 122.147 91.6548 121.154 91.5997C120.162 91.5445 119.528 91.4894 119.252 91.4342C117.818 91.131 116.798 90.8415 116.192 90.5658C115.613 90.2625 115.323 90.0143 115.323 89.8213C115.323 89.6283 115.502 89.4767 115.861 89.3664C116.219 89.2286 116.633 89.1596 117.102 89.1596C117.35 89.1596 117.598 89.1872 117.846 89.2424C118.094 89.2699 118.342 89.3113 118.59 89.3664C118.866 89.4491 119.211 89.5043 119.624 89.5319C120.065 89.5594 120.562 89.5732 121.113 89.5732C122.216 89.5732 123.47 89.5181 124.877 89.4078C126.283 89.2699 127.703 89.0769 129.136 88.8288C130.598 88.5807 131.949 88.3049 133.189 88.0017C134.43 87.6708 135.422 87.3124 136.167 86.9264C136.939 86.5404 137.325 86.1268 137.325 85.6857C137.325 85.4927 137.215 85.2859 136.994 85.0654C136.553 84.6242 136.001 84.252 135.34 83.9487C134.706 83.6455 133.906 83.3146 132.941 82.9562C132.004 82.5702 130.846 82.0877 129.467 81.5087C128.116 80.9022 126.503 80.1026 124.628 79.11C123.47 78.4759 122.464 77.828 121.609 77.1663C120.755 76.5046 120.327 75.7602 120.327 74.933C120.327 74.4919 120.465 74.037 120.741 73.5683C121.044 73.072 121.527 72.5482 122.188 71.9967C123.76 70.6733 125.497 69.6256 127.399 68.8537C129.302 68.0817 131.232 67.5303 133.189 67.1994C135.147 66.8686 136.98 66.7031 138.69 66.7031C140.647 66.7031 142.329 66.8686 143.735 67.1994C145.169 67.5027 146.079 67.8887 146.465 68.3574C146.74 68.6607 146.878 69.1432 146.878 69.8049C146.878 70.4666 146.754 71.1834 146.506 71.9554C146.258 72.6998 145.955 73.3477 145.596 73.8991C145.265 74.4506 144.948 74.7401 144.645 74.7676C143.956 74.7952 143.515 74.616 143.322 74.23C143.129 73.8164 143.032 73.3064 143.032 72.6998C143.032 72.369 143.046 72.0243 143.073 71.6659C143.101 71.3075 143.115 70.9628 143.115 70.632C143.115 70.0806 143.046 69.5981 142.908 69.1845C142.798 68.7709 142.522 68.4677 142.081 68.2747C141.309 67.9438 140.316 67.7784 139.103 67.7784C137.78 67.7784 136.36 67.9714 134.843 68.3574C133.355 68.7434 132.017 69.2948 130.832 70.0116C130.336 70.3149 129.77 70.7561 129.136 71.335C128.53 71.8865 127.992 72.5344 127.523 73.2788C127.055 73.9956 126.82 74.7676 126.82 75.5948C126.82 76.3116 127.055 77.056 127.523 77.828C128.02 78.6 128.861 79.3582 130.046 80.1026C131.039 80.7092 132.1 81.2606 133.231 81.7569C134.389 82.2531 135.491 82.7218 136.539 83.163C137.614 83.5765 138.538 83.9763 139.31 84.3623C140.082 84.7483 140.592 85.1481 140.84 85.5616C141.199 86.1131 141.378 86.6507 141.378 87.1745C141.378 87.919 141.019 88.5531 140.302 89.0769C139.586 89.6008 138.621 90.0419 137.408 90.4003C136.222 90.7312 134.885 90.9793 133.396 91.1448C131.935 91.3377 130.446 91.4756 128.929 91.5583C127.441 91.641 126.035 91.6824 124.711 91.6824Z" fill="white"/>
<path d="M80.5284 93.9996C79.977 93.9996 79.4945 93.779 79.0809 93.3379C78.695 92.9243 78.502 92.4556 78.502 91.9318C78.502 91.7664 78.5157 91.6423 78.5433 91.5596C78.819 90.5119 79.3291 89.7537 80.0735 89.285C80.8179 88.8163 81.6864 88.4992 82.6789 88.3338C82.5411 87.7824 82.4722 87.1896 82.4722 86.5554C82.4722 85.3699 82.6238 84.0189 82.9271 82.5025C83.2579 80.9861 83.6164 79.4697 84.0024 77.9533C84.4159 76.4369 84.7743 75.0584 85.0776 73.8177C85.4085 72.577 85.5739 71.6258 85.5739 70.9641C85.5739 70.5781 85.5188 70.33 85.4085 70.2197C85.1603 69.8888 85.0363 69.5855 85.0363 69.3098C85.0363 68.9238 85.2706 68.6344 85.7393 68.4414C86.2356 68.2484 86.8008 68.1519 87.4349 68.1519C87.9588 68.1519 88.4688 68.2208 88.9651 68.3586C89.489 68.4689 89.9301 68.6481 90.2885 68.8963C90.5091 69.0617 90.6194 69.3374 90.6194 69.7234C90.6194 70.33 90.4264 71.1571 90.0404 72.2048C89.682 73.2525 89.2133 74.4518 88.6343 75.8028C88.0553 77.1262 87.4763 78.5047 86.8973 79.9384C86.3183 81.3721 85.8082 82.792 85.3671 84.1981C84.9536 85.6042 84.7054 86.9001 84.6227 88.0856C84.8157 88.0581 84.9949 88.0443 85.1603 88.0443C85.3533 88.0443 85.5463 88.0443 85.7393 88.0443C88.2758 87.9616 90.4126 88.1132 92.1496 88.4992C93.9141 88.8576 95.3754 89.3125 96.5333 89.864C97.7189 90.4154 98.7114 90.9117 99.511 91.3528C100.311 91.7939 101.027 92.0421 101.662 92.0972C102.378 92.2351 102.737 92.3729 102.737 92.5108C102.737 92.5935 102.64 92.6762 102.447 92.7589C101.841 93.0898 101.234 93.2552 100.628 93.2552C99.8005 93.2552 98.8631 93.0208 97.8154 92.5521C96.7953 92.111 95.4305 91.6423 93.7211 91.146C92.9491 90.9254 92.0531 90.7187 91.0329 90.5257C90.0404 90.3051 88.9927 90.1948 87.8899 90.1948C87.3936 90.1948 86.8973 90.2224 86.401 90.2775C85.9048 90.3327 85.4085 90.4154 84.9122 90.5257C84.9949 90.8565 85.119 91.1184 85.2844 91.3114C85.3671 91.4493 85.2844 91.5182 85.0363 91.5182C84.7881 91.5182 84.4297 91.2563 83.961 90.7324C83.2717 90.9254 82.5273 91.2425 81.7278 91.6836C81.3418 91.9042 81.1488 92.1523 81.1488 92.4281C81.1488 92.6211 81.1901 92.8141 81.2728 93.007C81.3831 93.2 81.4383 93.3793 81.4383 93.5447C81.4383 93.7101 81.3142 93.8342 81.0661 93.9169C80.8455 93.972 80.6663 93.9996 80.5284 93.9996Z" fill="white"/>
<path d="M40.352 92.8422C40.159 92.8422 39.9798 92.7595 39.8144 92.594C39.6214 92.4286 39.5249 92.1943 39.5249 91.891C39.5249 91.6704 39.5938 91.3947 39.7317 91.0639C39.8695 90.733 40.1177 90.3746 40.4761 89.9886C41.1102 88.5825 41.703 87.4383 42.2544 86.556C42.8334 85.6737 43.4813 84.7226 44.1982 83.7024C43.8397 83.6473 43.5778 83.5232 43.4124 83.3302C43.247 83.1097 43.1643 82.8615 43.1643 82.5858C43.1643 82.1447 43.2883 81.7311 43.5365 81.3451C43.8122 80.9315 44.0603 80.7248 44.2809 80.7248C44.6117 80.7248 44.9564 80.6834 45.3148 80.6007C45.7008 80.518 46.0868 80.4766 46.4728 80.4766C47.4653 79.0429 48.2649 77.8574 48.8714 76.92C49.5056 75.9826 50.0156 75.2244 50.4016 74.6454C50.7876 74.0664 51.1185 73.5839 51.3942 73.1979C51.6975 72.8119 52.0007 72.4535 52.304 72.1226C52.6073 71.7642 52.9795 71.3506 53.4206 70.8819C53.8618 70.4132 54.4408 69.8205 55.1576 69.1036C54.7992 68.3592 54.62 67.6286 54.62 66.9117C54.62 65.9192 54.9095 65.1058 55.4885 64.4717C56.0675 63.8376 56.674 63.5205 57.3081 63.5205C57.639 63.5205 57.9423 63.617 58.218 63.81C58.5213 63.9754 58.7694 64.2787 58.9624 64.7198C59.7344 66.4844 60.272 68.7314 60.5753 71.4609C60.9062 74.1905 61.1267 77.0854 61.237 80.1458C63.3048 80.3112 64.7385 80.6834 65.5381 81.2624C65.1796 81.3727 64.6282 81.4968 63.8838 81.6346C63.1394 81.7449 62.2571 81.869 61.237 82.0068C61.237 83.1096 61.2508 84.2263 61.2784 85.3567C61.3059 86.4871 61.3197 87.6037 61.3197 88.7065C61.3197 90.2505 61.1956 91.3258 60.9475 91.9323C60.7269 92.5389 60.5064 92.8422 60.2858 92.8422C59.9825 92.8422 59.8309 92.5665 59.8309 92.0151C59.8309 90.1678 59.7482 88.4446 59.5827 86.8455C59.4173 85.2188 59.183 83.7024 58.8797 82.2963C57.5287 82.4342 56.095 82.5858 54.5786 82.7512C53.0898 82.8891 51.601 83.0269 50.1121 83.1648C48.6233 83.3026 47.2448 83.4405 45.9765 83.5784C45.0942 84.9569 44.212 86.4044 43.3297 87.9208C42.475 89.4372 41.6479 90.9812 40.8483 92.5527C40.7656 92.7457 40.6002 92.8422 40.352 92.8422ZM48.2097 80.3112C49.8364 80.1734 51.5458 80.0906 53.3379 80.0631C55.13 80.0079 56.8257 79.9804 58.4248 79.9804C57.9561 78.0228 57.446 76.2996 56.8946 74.8108C56.3707 73.2944 55.9572 71.9986 55.6539 70.9233C54.937 71.6401 53.9031 72.8119 52.5522 74.4386C51.2288 76.0653 49.7813 78.0228 48.2097 80.3112Z" fill="white"/>
<path d="M9.92553 82.5013C9.40168 82.5013 8.97433 82.4737 8.64348 82.4186C8.3402 82.3634 8.10585 82.3083 7.94042 82.2532C7.47172 82.0877 7.23737 81.9499 7.23737 81.8396C7.23737 81.5915 8.64349 81.4674 11.4557 81.4674C12.9721 81.4674 14.4196 81.2193 15.7981 80.723C17.1767 80.2267 18.4312 79.5926 19.5616 78.8206C20.7195 78.021 21.6983 77.1801 22.4979 76.2978C23.2974 75.388 23.8626 74.5333 24.1935 73.7337C24.3865 73.2375 24.483 72.8239 24.483 72.4931C24.483 71.5556 24.0694 70.7285 23.2423 70.0117C22.4427 69.2673 21.3537 68.6745 19.9751 68.2333C18.5966 67.7922 17.025 67.5716 15.2605 67.5716C13.7441 67.5716 12.1174 67.7784 10.3805 68.192C8.67105 68.578 6.96166 69.2259 5.25226 70.1357C5.05926 70.246 4.81113 70.3287 4.50785 70.3839C4.20457 70.4115 3.8875 70.4252 3.55665 70.4252C3.14309 70.4252 2.75709 70.3839 2.39867 70.3012C2.06782 70.2185 1.90239 70.0944 1.90239 69.929C1.90239 69.7084 2.16432 69.4603 2.68816 69.1845C4.53542 68.192 6.46538 67.4751 8.47806 67.034C10.4907 66.5929 12.4621 66.3723 14.392 66.3723C16.2668 66.3723 18.0452 66.5515 19.727 66.9099C21.4088 67.2684 22.8976 67.7646 24.1935 68.3988C25.4893 69.0053 26.4957 69.7222 27.2125 70.5493C27.9569 71.3489 28.3291 72.2036 28.3291 73.1134C28.3291 73.6097 28.2051 74.106 27.9569 74.6022C27.4606 75.6499 26.5508 76.67 25.2274 77.6626C23.904 78.6276 22.3187 79.4823 20.4714 80.2267C18.6242 80.9711 16.6666 81.5501 14.5988 81.9637C13.5511 82.1567 12.6413 82.2945 11.8693 82.3772C11.1249 82.4599 10.4769 82.5013 9.92553 82.5013ZM1.65426 93.3367C1.43369 93.3367 1.17176 93.1437 0.868483 92.7577C0.565203 92.3993 0.303279 91.6824 0.0827117 90.6072C0.0551407 90.4417 0.0275709 90.2763 0 90.1109C0 89.9179 0 89.7249 0 89.5319C0 88.5945 0.124068 87.4916 0.372207 86.2234C0.647916 84.9275 1.00634 83.5766 1.44747 82.1705C1.88861 80.7368 2.3711 79.3306 2.89495 77.9521C3.41879 76.5736 3.95643 75.3053 4.50785 74.1473C5.05926 72.9893 5.56933 72.0519 6.03803 71.3351C6.42402 70.701 6.97544 70.2736 7.69229 70.053C8.4367 69.8049 9.13976 69.6808 9.80146 69.6808C10.4356 69.6808 10.9594 69.7635 11.373 69.929C11.7866 70.0944 11.8969 70.2874 11.7039 70.5079C10.794 71.6384 9.8566 72.9893 8.89162 74.5609C7.92664 76.1048 7.0168 77.7591 6.1621 79.5236C5.3074 81.2606 4.5492 82.9838 3.8875 84.6932C3.2258 86.4026 2.72952 87.9741 2.39867 89.4078C2.06782 90.8415 1.95754 92.0271 2.06782 92.9645C2.06782 93.2126 1.92996 93.3367 1.65426 93.3367Z" fill="white"/>
<path d="M79.8538 25.6235C79.8538 25.6787 79.6608 25.6373 79.2748 25.4995C78.9164 25.3616 78.489 25.1824 77.9927 24.9618C77.524 24.7137 77.0967 24.4518 76.7107 24.1761C76.3523 23.9003 76.173 23.6384 76.173 23.3903C76.1179 22.508 76.1593 21.4879 76.2971 20.3299C76.435 19.1444 76.628 17.9864 76.8761 16.856C77.1518 15.698 77.4137 14.733 77.6619 13.961C77.8273 13.4923 78.1444 13.0925 78.6131 12.7617C79.0818 12.4308 79.5918 12.1827 80.1433 12.0173C80.7222 11.8243 81.2461 11.7278 81.7148 11.7278C82.1008 11.7278 82.4179 11.7967 82.666 11.9346C82.9141 12.0448 83.0382 12.2241 83.0382 12.4722C83.0382 12.6652 82.9417 12.8995 82.7487 13.1753C82.5006 13.5337 82.1835 14.1127 81.7975 14.9122C81.4391 15.7118 81.0807 16.594 80.7222 17.559C80.3914 18.4964 80.1019 19.3787 79.8538 20.2058C79.6332 21.0054 79.5229 21.612 79.5229 22.0255C79.5229 22.3839 79.6194 22.5218 79.8124 22.4391C79.8675 22.4391 80.0054 22.2874 80.226 21.9842C80.4465 21.6809 80.5706 21.4879 80.5982 21.4052C81.894 19.9163 83.0796 18.6343 84.1548 17.559C85.2577 16.4562 86.3743 15.5464 87.5047 14.8295C88.6627 14.0851 89.9861 13.5061 91.4749 13.0925C91.8609 12.9823 92.1228 13.1477 92.2607 13.5888C92.4261 14.0024 92.5226 14.5814 92.5502 15.3258C92.5777 16.0426 92.5915 16.8422 92.5915 17.7245C92.6191 18.5792 92.688 19.4201 92.7983 20.2472C92.9362 21.0468 93.1705 21.7222 93.5014 22.2737C93.8322 22.7975 94.3285 23.1008 94.9902 23.1835C95.4589 23.2386 96.0103 23.1284 96.6445 22.8526C97.2786 22.5769 97.9127 22.1634 98.5468 21.612C99.181 21.0605 99.7048 20.4126 100.118 19.6682C100.532 18.9238 100.739 18.1242 100.739 17.2695C100.739 16.8284 100.684 16.3873 100.573 15.9461C100.463 15.505 100.27 15.0639 99.9943 14.6227C99.8565 14.3194 99.7048 14.154 99.5394 14.1265C99.4016 14.0713 99.2499 14.0575 99.0845 14.0851C98.9466 14.0851 98.795 14.0162 98.6296 13.8783C98.2987 13.6302 98.3814 13.4234 98.8777 13.258C99.374 13.0925 99.9667 13.0098 100.656 13.0098C101.18 13.0098 101.69 13.065 102.186 13.1753C102.682 13.2855 103.041 13.4785 103.261 13.7542C103.51 14.03 103.73 14.4711 103.923 15.0776C104.116 15.6842 104.213 16.3597 104.213 17.1041C104.213 17.8485 104.075 18.6343 103.799 19.4614C103.551 20.261 103.096 21.0054 102.434 21.6947C101.8 22.3839 100.918 22.9767 99.7875 23.473C98.6847 23.9417 97.2648 24.2174 95.5278 24.3001C94.5628 24.3553 93.7633 24.1761 93.1292 23.7625C92.495 23.3214 91.985 22.7424 91.599 22.0255C91.213 21.3087 90.9097 20.5505 90.6891 19.7509C90.4686 18.9238 90.2894 18.1518 90.1515 17.435C90.0136 16.7181 89.8896 16.1391 89.7793 15.698C89.669 15.2293 89.5174 15.0225 89.3244 15.0776C88.6351 15.2431 87.8769 15.6842 87.0498 16.4011C86.2226 17.0903 85.3817 17.9588 84.527 19.0065C83.6999 20.0266 82.8728 21.1157 82.0457 22.2737C81.2461 23.4316 80.5155 24.5483 79.8538 25.6235Z" fill="white"/>
<path d="M70.8958 25.9553C70.6201 25.9553 70.5236 25.6934 70.6064 25.1695C70.7442 24.37 70.8407 23.5704 70.8958 22.7708C70.9786 21.9437 71.0199 21.2269 71.0199 20.6203C71.0199 20.0413 70.9786 19.5726 70.8958 19.2142C70.8407 18.8282 70.7166 18.6352 70.5236 18.6352C70.4409 18.6352 70.3169 18.6766 70.1514 18.7593C70.0136 18.842 69.7654 19.0074 69.407 19.2555C68.8005 19.6967 68.0147 20.1792 67.0497 20.703C66.1123 21.2269 65.0922 21.7507 63.9893 22.2746C62.8865 22.7984 61.8112 23.2947 60.7635 23.7634C59.7158 24.2321 58.7784 24.6594 57.9513 25.0454C57.4826 25.2384 56.945 25.3349 56.3384 25.3349C55.6491 25.3349 55.015 25.2247 54.436 25.0041C53.8846 24.7559 53.6089 24.3837 53.6089 23.8875C53.6089 23.1982 53.857 22.2746 54.3533 21.1166C54.8496 19.9586 55.6078 18.7041 56.6279 17.3532C57.648 15.9746 58.9163 14.6512 60.4327 13.3829C61.4528 12.5282 62.5281 11.8528 63.6585 11.3565C64.7889 10.8602 66.0158 10.6121 67.3392 10.6121C68.0285 10.6121 68.7591 10.6948 69.5311 10.8602C70.3031 11.0256 70.951 11.3013 71.4748 11.6873C72.0263 12.0733 72.302 12.611 72.302 13.3002C72.302 13.7965 72.1779 14.1549 71.9298 14.3755C71.7092 14.5685 71.4748 14.665 71.2267 14.665C70.8959 14.665 70.4823 14.5271 69.986 14.2514C69.5173 13.9757 68.8832 13.8379 68.0836 13.8379C67.5046 13.8379 66.9119 13.9344 66.3053 14.1274C65.6987 14.2928 65.0232 14.5823 64.2788 14.9958C63.0106 15.7127 61.8802 16.4985 60.8876 17.3532C59.8951 18.1803 59.1093 18.9936 58.5303 19.7932C57.9789 20.5927 57.7032 21.282 57.7032 21.861C57.7032 22.2746 57.841 22.6054 58.1167 22.8536C58.42 23.1017 58.7922 23.2258 59.2334 23.2258C59.9226 23.2258 60.7222 23.019 61.632 22.6054C62.5419 22.1643 63.4103 21.7231 64.2375 21.282C65.9469 20.3722 67.2427 19.6002 68.125 18.966C69.0348 18.3319 69.7241 17.8356 70.1928 17.4772C70.6891 17.0912 71.1578 16.8293 71.5989 16.6914C71.6816 16.6639 71.8333 16.6501 72.0538 16.6501C72.495 16.6501 72.9775 16.7466 73.5013 16.9396C74.0527 17.105 74.3146 17.2704 74.2871 17.4359C74.2871 17.9321 74.1216 18.5111 73.7908 19.1728C73.4599 19.807 73.1842 20.5652 72.9637 21.4474C72.8258 22.054 72.7293 22.6054 72.6742 23.1017C72.6466 23.5704 72.5087 24.2045 72.2606 25.0041C72.233 25.1144 72.0538 25.2936 71.723 25.5417C71.3921 25.8174 71.1164 25.9553 70.8958 25.9553Z" fill="white"/>
<path d="M36.0154 17.0216C35.4915 17.0216 35.0642 16.994 34.7333 16.9389C34.43 16.8837 34.1957 16.8286 34.0303 16.7734C33.5616 16.608 33.3272 16.4701 33.3272 16.3599C33.3272 16.1117 34.7333 15.9877 37.5456 15.9877C39.062 15.9877 40.5094 15.7395 41.888 15.2432C43.2665 14.747 44.521 14.1128 45.6514 13.3409C46.8094 12.5413 47.7882 11.7004 48.5877 10.8181C49.3873 9.90827 49.9525 9.05357 50.2833 8.25401C50.4763 7.75774 50.5728 7.34417 50.5728 7.01332C50.5728 6.07591 50.1593 5.24879 49.3321 4.53194C48.5326 3.78753 47.4435 3.19475 46.065 2.75362C44.6864 2.31248 43.1149 2.09191 41.3504 2.09191C39.8339 2.09191 38.2073 2.2987 36.4703 2.71226C34.7609 3.09825 33.0515 3.74617 31.3421 4.65601C31.1491 4.76629 30.901 4.84901 30.5977 4.90415C30.2944 4.93172 29.9773 4.9455 29.6465 4.9455C29.2329 4.9455 28.8469 4.90415 28.4885 4.82143C28.1577 4.73872 27.9922 4.61465 27.9922 4.44923C27.9922 4.22866 28.2542 3.98052 28.778 3.70481C30.6253 2.71226 32.5552 1.99542 34.5679 1.55428C36.5806 1.11315 38.5519 0.892578 40.4819 0.892578C42.3567 0.892578 44.135 1.07179 45.8168 1.43021C47.4987 1.78863 48.9875 2.28491 50.2833 2.91904C51.5792 3.5256 52.5855 4.24245 53.3023 5.06957C54.0468 5.86913 54.419 6.72383 54.419 7.63367C54.419 8.12995 54.2949 8.62622 54.0468 9.1225C53.5505 10.1702 52.6406 11.1903 51.3172 12.1829C49.9938 13.1479 48.4085 14.0026 46.5613 14.747C44.714 15.4914 42.7565 16.0704 40.6887 16.4839C39.641 16.6769 38.7311 16.8148 37.9591 16.8975C37.2147 16.9802 36.5668 17.0216 36.0154 17.0216ZM27.7441 27.8569C27.5235 27.8569 27.2616 27.6639 26.9583 27.278C26.655 26.9195 26.3931 26.2027 26.1726 25.1274C26.145 24.962 26.1174 24.7966 26.0898 24.6311C26.0898 24.4381 26.0898 24.2452 26.0898 24.0522C26.0898 23.1147 26.2139 22.0119 26.4621 20.7436C26.7378 19.4478 27.0962 18.0968 27.5373 16.6907C27.9785 15.257 28.4609 13.8509 28.9848 12.4724C29.5086 11.0938 30.0463 9.82556 30.5977 8.66758C31.1491 7.5096 31.6592 6.57219 32.1279 5.85534C32.5139 5.22121 33.0653 4.79386 33.7821 4.5733C34.5265 4.32516 35.2296 4.20109 35.8913 4.20109C36.5254 4.20109 37.0493 4.2838 37.4628 4.44923C37.8764 4.61465 37.9867 4.80765 37.7937 5.02822C36.8839 6.15862 35.9464 7.5096 34.9815 9.08114C34.0165 10.6251 33.1066 12.2794 32.2519 14.0439C31.3972 15.7809 30.639 17.5041 29.9773 19.2135C29.3156 20.9229 28.8194 22.4944 28.4885 23.9281C28.1577 25.3618 28.0474 26.5473 28.1577 27.4847C28.1577 27.7329 28.0198 27.8569 27.7441 27.8569Z" fill="white"/>
</svg>
