<svg width="206" height="98" viewBox="0 0 206 98" fill="none" xmlns="http://www.w3.org/2000/svg">
<path d="M125.616 10.9831C125.43 7.06226 121.994 6.60366 120.299 6.86447C118.471 7.99993 118.635 11.657 118.946 13.3436C120.252 17.5191 123.035 17.8292 124.264 17.4622C126.167 15.5682 125.958 12.3536 125.616 10.9831Z" stroke="white" stroke-width="1.81216"/>
<path d="M137.212 8.22939C137.026 4.30859 133.589 3.85 131.895 4.11081C130.066 5.24627 130.231 8.90337 130.542 10.59C131.848 14.7655 134.631 15.0755 135.859 14.7086C137.762 12.8145 137.554 9.59994 137.212 8.22939Z" stroke="white" stroke-width="1.81216"/>
<path d="M149.071 13.698C150.12 9.95628 147.074 8.73328 145.42 8.5895C143.369 9.2401 142.383 12.7281 142.146 14.3907C142.057 18.6302 144.543 19.5629 145.798 19.4992C148.154 18.1502 148.962 15.0697 149.071 13.698Z" stroke="white" stroke-width="1.81216"/>
<path d="M155.294 27.0563C157.298 23.7547 154.462 21.7081 152.794 21.0975C150.521 21.1381 148.643 24.2132 147.988 25.7456C146.85 29.8002 149.181 31.4076 150.488 31.7045C153.249 31.0789 154.842 28.3451 155.294 27.0563Z" stroke="white" stroke-width="1.81216"/>
<path d="M171.187 35.1057C172.326 31.4814 169.069 29.9295 167.298 29.6066C165.098 30.0343 164.026 33.4118 163.765 35.0471C163.651 39.2726 166.31 40.4738 167.654 40.5461C170.184 39.4538 171.063 36.464 171.187 35.1057Z" stroke="white" stroke-width="1.81216"/>
<path d="M183.039 36.3669C184.178 32.7426 180.921 31.1907 179.15 30.8678C176.95 31.2955 175.878 34.673 175.617 36.3083C175.503 40.5339 178.162 41.735 179.506 41.8074C182.036 40.7151 182.915 37.7253 183.039 36.3669Z" stroke="white" stroke-width="1.81216"/>
<path d="M192.401 45.528C194.622 42.4804 191.979 40.2777 190.38 39.5574C188.136 39.4221 186.056 42.2598 185.297 43.6956C183.872 47.5399 186.05 49.2778 187.317 49.6662C190.085 49.2717 191.86 46.743 192.401 45.528Z" stroke="white" stroke-width="1.81216"/>
<path d="M193.848 60.2593C196.811 57.966 194.614 54.9999 193.145 53.8035C190.884 52.9801 188.113 55.1119 187.01 56.2807C184.679 59.5979 186.507 61.9667 187.713 62.7365C190.629 63.2036 193.018 61.2797 193.848 60.2593Z" stroke="white" stroke-width="1.81216"/>
<path d="M128.456 41.3141C111.864 41.9614 117.693 31.5809 122.682 26.3098L125.258 22.5832C128.864 17.3658 136.264 19.6356 139.513 21.4227C142.942 22.691 142.97 30.6955 142.556 34.5392C141.899 49.5044 132.882 45.2913 128.456 41.3141Z" stroke="white" stroke-width="1.81216"/>
<path d="M163.603 64.6212C147.741 59.7131 156.691 51.8625 163.149 48.5508L166.818 45.8931C171.954 42.1722 178.178 46.7742 180.648 49.5403C183.459 51.8767 180.823 59.4349 179.154 62.9219C173.557 76.8165 166.455 69.8442 163.603 64.6212Z" stroke="white" stroke-width="1.81216"/>
<path d="M124.711 95.6824C123.333 95.6824 122.147 95.6548 121.154 95.5997C120.162 95.5445 119.528 95.4894 119.252 95.4342C117.818 95.131 116.798 94.8415 116.192 94.5658C115.613 94.2625 115.323 94.0143 115.323 93.8213C115.323 93.6283 115.502 93.4767 115.861 93.3664C116.219 93.2286 116.633 93.1596 117.102 93.1596C117.35 93.1596 117.598 93.1872 117.846 93.2424C118.094 93.2699 118.342 93.3113 118.59 93.3664C118.866 93.4491 119.211 93.5043 119.624 93.5319C120.065 93.5594 120.562 93.5732 121.113 93.5732C122.216 93.5732 123.47 93.5181 124.877 93.4078C126.283 93.2699 127.703 93.0769 129.136 92.8288C130.598 92.5807 131.949 92.3049 133.189 92.0017C134.43 91.6708 135.422 91.3124 136.167 90.9264C136.939 90.5404 137.325 90.1268 137.325 89.6857C137.325 89.4927 137.215 89.2859 136.994 89.0654C136.553 88.6242 136.001 88.252 135.34 87.9487C134.706 87.6455 133.906 87.3146 132.941 86.9562C132.004 86.5702 130.846 86.0877 129.467 85.5087C128.116 84.9022 126.503 84.1026 124.628 83.11C123.47 82.4759 122.464 81.828 121.609 81.1663C120.755 80.5046 120.327 79.7602 120.327 78.933C120.327 78.4919 120.465 78.037 120.741 77.5683C121.044 77.072 121.527 76.5482 122.188 75.9967C123.76 74.6733 125.497 73.6256 127.399 72.8537C129.302 72.0817 131.232 71.5303 133.189 71.1994C135.147 70.8686 136.98 70.7031 138.69 70.7031C140.647 70.7031 142.329 70.8686 143.735 71.1994C145.169 71.5027 146.079 71.8887 146.465 72.3574C146.74 72.6607 146.878 73.1432 146.878 73.8049C146.878 74.4666 146.754 75.1834 146.506 75.9554C146.258 76.6998 145.955 77.3477 145.596 77.8991C145.265 78.4506 144.948 78.7401 144.645 78.7676C143.956 78.7952 143.515 78.616 143.322 78.23C143.129 77.8164 143.032 77.3064 143.032 76.6998C143.032 76.369 143.046 76.0243 143.073 75.6659C143.101 75.3075 143.115 74.9628 143.115 74.632C143.115 74.0806 143.046 73.5981 142.908 73.1845C142.798 72.7709 142.522 72.4677 142.081 72.2747C141.309 71.9438 140.316 71.7784 139.103 71.7784C137.78 71.7784 136.36 71.9714 134.843 72.3574C133.355 72.7434 132.017 73.2948 130.832 74.0116C130.336 74.3149 129.77 74.7561 129.136 75.335C128.53 75.8865 127.992 76.5344 127.523 77.2788C127.055 77.9956 126.82 78.7676 126.82 79.5948C126.82 80.3116 127.055 81.056 127.523 81.828C128.02 82.6 128.861 83.3582 130.046 84.1026C131.039 84.7092 132.1 85.2606 133.231 85.7569C134.389 86.2531 135.491 86.7218 136.539 87.163C137.614 87.5765 138.538 87.9763 139.31 88.3623C140.082 88.7483 140.592 89.1481 140.84 89.5616C141.199 90.1131 141.378 90.6507 141.378 91.1745C141.378 91.919 141.019 92.5531 140.302 93.0769C139.586 93.6008 138.621 94.0419 137.408 94.4003C136.222 94.7312 134.885 94.9793 133.396 95.1448C131.935 95.3377 130.446 95.4756 128.929 95.5583C127.441 95.641 126.035 95.6824 124.711 95.6824Z" fill="white"/>
<path d="M80.5284 97.9996C79.977 97.9996 79.4945 97.779 79.0809 97.3379C78.695 96.9243 78.502 96.4556 78.502 95.9318C78.502 95.7664 78.5157 95.6423 78.5433 95.5596C78.819 94.5119 79.3291 93.7537 80.0735 93.285C80.8179 92.8163 81.6864 92.4992 82.6789 92.3338C82.5411 91.7824 82.4722 91.1896 82.4722 90.5554C82.4722 89.3699 82.6238 88.0189 82.9271 86.5025C83.2579 84.9861 83.6164 83.4697 84.0024 81.9533C84.4159 80.4369 84.7743 79.0584 85.0776 77.8177C85.4085 76.577 85.5739 75.6258 85.5739 74.9641C85.5739 74.5781 85.5188 74.33 85.4085 74.2197C85.1603 73.8888 85.0363 73.5855 85.0363 73.3098C85.0363 72.9238 85.2706 72.6344 85.7393 72.4414C86.2356 72.2484 86.8008 72.1519 87.4349 72.1519C87.9588 72.1519 88.4688 72.2208 88.9651 72.3586C89.489 72.4689 89.9301 72.6481 90.2885 72.8963C90.5091 73.0617 90.6194 73.3374 90.6194 73.7234C90.6194 74.33 90.4264 75.1571 90.0404 76.2048C89.682 77.2525 89.2133 78.4518 88.6343 79.8028C88.0553 81.1262 87.4763 82.5047 86.8973 83.9384C86.3183 85.3721 85.8082 86.792 85.3671 88.1981C84.9536 89.6042 84.7054 90.9001 84.6227 92.0856C84.8157 92.0581 84.9949 92.0443 85.1603 92.0443C85.3533 92.0443 85.5463 92.0443 85.7393 92.0443C88.2758 91.9616 90.4126 92.1132 92.1496 92.4992C93.9141 92.8576 95.3754 93.3125 96.5333 93.864C97.7189 94.4154 98.7114 94.9117 99.511 95.3528C100.311 95.7939 101.027 96.0421 101.662 96.0972C102.378 96.2351 102.737 96.3729 102.737 96.5108C102.737 96.5935 102.64 96.6762 102.447 96.7589C101.841 97.0898 101.234 97.2552 100.628 97.2552C99.8005 97.2552 98.8631 97.0208 97.8154 96.5521C96.7953 96.111 95.4305 95.6423 93.7211 95.146C92.9491 94.9254 92.0531 94.7187 91.0329 94.5257C90.0404 94.3051 88.9927 94.1948 87.8899 94.1948C87.3936 94.1948 86.8973 94.2224 86.401 94.2775C85.9048 94.3327 85.4085 94.4154 84.9122 94.5257C84.9949 94.8565 85.119 95.1184 85.2844 95.3114C85.3671 95.4493 85.2844 95.5182 85.0363 95.5182C84.7881 95.5182 84.4297 95.2563 83.961 94.7324C83.2717 94.9254 82.5273 95.2425 81.7278 95.6836C81.3418 95.9042 81.1488 96.1523 81.1488 96.4281C81.1488 96.6211 81.1901 96.8141 81.2728 97.007C81.3831 97.2 81.4383 97.3793 81.4383 97.5447C81.4383 97.7101 81.3142 97.8342 81.0661 97.9169C80.8455 97.972 80.6663 97.9996 80.5284 97.9996Z" fill="white"/>
<path d="M40.352 96.8422C40.159 96.8422 39.9798 96.7595 39.8144 96.594C39.6214 96.4286 39.5249 96.1943 39.5249 95.891C39.5249 95.6704 39.5938 95.3947 39.7317 95.0639C39.8695 94.733 40.1177 94.3746 40.4761 93.9886C41.1102 92.5825 41.703 91.4383 42.2544 90.556C42.8334 89.6737 43.4813 88.7226 44.1982 87.7024C43.8397 87.6473 43.5778 87.5232 43.4124 87.3302C43.247 87.1097 43.1643 86.8615 43.1643 86.5858C43.1643 86.1447 43.2883 85.7311 43.5365 85.3451C43.8122 84.9315 44.0603 84.7248 44.2809 84.7248C44.6117 84.7248 44.9564 84.6834 45.3148 84.6007C45.7008 84.518 46.0868 84.4766 46.4728 84.4766C47.4653 83.0429 48.2649 81.8574 48.8714 80.92C49.5056 79.9826 50.0156 79.2244 50.4016 78.6454C50.7876 78.0664 51.1185 77.5839 51.3942 77.1979C51.6975 76.8119 52.0007 76.4535 52.304 76.1226C52.6073 75.7642 52.9795 75.3506 53.4206 74.8819C53.8618 74.4132 54.4408 73.8205 55.1576 73.1036C54.7992 72.3592 54.62 71.6286 54.62 70.9117C54.62 69.9192 54.9095 69.1058 55.4885 68.4717C56.0675 67.8376 56.674 67.5205 57.3081 67.5205C57.639 67.5205 57.9423 67.617 58.218 67.81C58.5213 67.9754 58.7694 68.2787 58.9624 68.7198C59.7344 70.4844 60.272 72.7314 60.5753 75.4609C60.9062 78.1905 61.1267 81.0854 61.237 84.1458C63.3048 84.3112 64.7385 84.6834 65.5381 85.2624C65.1796 85.3727 64.6282 85.4968 63.8838 85.6346C63.1394 85.7449 62.2571 85.869 61.237 86.0068C61.237 87.1096 61.2508 88.2263 61.2784 89.3567C61.3059 90.4871 61.3197 91.6037 61.3197 92.7065C61.3197 94.2505 61.1956 95.3258 60.9475 95.9323C60.7269 96.5389 60.5064 96.8422 60.2858 96.8422C59.9825 96.8422 59.8309 96.5665 59.8309 96.0151C59.8309 94.1678 59.7482 92.4446 59.5827 90.8455C59.4173 89.2188 59.183 87.7024 58.8797 86.2963C57.5287 86.4342 56.095 86.5858 54.5786 86.7512C53.0898 86.8891 51.601 87.0269 50.1121 87.1648C48.6233 87.3026 47.2448 87.4405 45.9765 87.5784C45.0942 88.9569 44.212 90.4044 43.3297 91.9208C42.475 93.4372 41.6479 94.9812 40.8483 96.5527C40.7656 96.7457 40.6002 96.8422 40.352 96.8422ZM48.2097 84.3112C49.8364 84.1734 51.5458 84.0906 53.3379 84.0631C55.13 84.0079 56.8257 83.9804 58.4248 83.9804C57.9561 82.0228 57.446 80.2996 56.8946 78.8108C56.3707 77.2944 55.9572 75.9986 55.6539 74.9233C54.937 75.6401 53.9031 76.8119 52.5522 78.4386C51.2288 80.0653 49.7813 82.0228 48.2097 84.3112Z" fill="white"/>
<path d="M9.92553 86.5013C9.40168 86.5013 8.97433 86.4737 8.64348 86.4186C8.3402 86.3634 8.10585 86.3083 7.94042 86.2532C7.47172 86.0877 7.23737 85.9499 7.23737 85.8396C7.23737 85.5915 8.64349 85.4674 11.4557 85.4674C12.9721 85.4674 14.4196 85.2193 15.7981 84.723C17.1767 84.2267 18.4312 83.5926 19.5616 82.8206C20.7195 82.021 21.6983 81.1801 22.4979 80.2978C23.2974 79.388 23.8626 78.5333 24.1935 77.7337C24.3865 77.2375 24.483 76.8239 24.483 76.4931C24.483 75.5556 24.0694 74.7285 23.2423 74.0117C22.4427 73.2673 21.3537 72.6745 19.9751 72.2333C18.5966 71.7922 17.025 71.5716 15.2605 71.5716C13.7441 71.5716 12.1174 71.7784 10.3805 72.192C8.67105 72.578 6.96166 73.2259 5.25226 74.1357C5.05926 74.246 4.81113 74.3287 4.50785 74.3839C4.20457 74.4115 3.8875 74.4252 3.55665 74.4252C3.14309 74.4252 2.75709 74.3839 2.39867 74.3012C2.06782 74.2185 1.90239 74.0944 1.90239 73.929C1.90239 73.7084 2.16432 73.4603 2.68816 73.1845C4.53542 72.192 6.46538 71.4751 8.47806 71.034C10.4907 70.5929 12.4621 70.3723 14.392 70.3723C16.2668 70.3723 18.0452 70.5515 19.727 70.9099C21.4088 71.2684 22.8976 71.7646 24.1935 72.3988C25.4893 73.0053 26.4957 73.7222 27.2125 74.5493C27.9569 75.3489 28.3291 76.2036 28.3291 77.1134C28.3291 77.6097 28.2051 78.106 27.9569 78.6022C27.4606 79.6499 26.5508 80.67 25.2274 81.6626C23.904 82.6276 22.3187 83.4823 20.4714 84.2267C18.6242 84.9711 16.6666 85.5501 14.5988 85.9637C13.5511 86.1567 12.6413 86.2945 11.8693 86.3772C11.1249 86.4599 10.4769 86.5013 9.92553 86.5013ZM1.65426 97.3367C1.43369 97.3367 1.17176 97.1437 0.868483 96.7577C0.565203 96.3993 0.303279 95.6824 0.0827117 94.6072C0.0551407 94.4417 0.0275709 94.2763 0 94.1109C0 93.9179 0 93.7249 0 93.5319C0 92.5945 0.124068 91.4916 0.372207 90.2234C0.647916 88.9275 1.00634 87.5766 1.44747 86.1705C1.88861 84.7368 2.3711 83.3306 2.89495 81.9521C3.41879 80.5736 3.95643 79.3053 4.50785 78.1473C5.05926 76.9893 5.56933 76.0519 6.03803 75.3351C6.42402 74.701 6.97544 74.2736 7.69229 74.053C8.4367 73.8049 9.13976 73.6808 9.80146 73.6808C10.4356 73.6808 10.9594 73.7635 11.373 73.929C11.7866 74.0944 11.8969 74.2874 11.7039 74.5079C10.794 75.6384 9.8566 76.9893 8.89162 78.5609C7.92664 80.1048 7.0168 81.7591 6.1621 83.5236C5.3074 85.2606 4.5492 86.9838 3.8875 88.6932C3.2258 90.4026 2.72952 91.9741 2.39867 93.4078C2.06782 94.8415 1.95754 96.0271 2.06782 96.9645C2.06782 97.2126 1.92996 97.3367 1.65426 97.3367Z" fill="white"/>
<path d="M79.8538 29.6235C79.8538 29.6787 79.6608 29.6373 79.2748 29.4995C78.9164 29.3616 78.489 29.1824 77.9927 28.9618C77.524 28.7137 77.0967 28.4518 76.7107 28.1761C76.3523 27.9003 76.173 27.6384 76.173 27.3903C76.1179 26.508 76.1593 25.4879 76.2971 24.3299C76.435 23.1444 76.628 21.9864 76.8761 20.856C77.1518 19.698 77.4137 18.733 77.6619 17.961C77.8273 17.4923 78.1444 17.0925 78.6131 16.7617C79.0818 16.4308 79.5918 16.1827 80.1433 16.0173C80.7222 15.8243 81.2461 15.7278 81.7148 15.7278C82.1008 15.7278 82.4179 15.7967 82.666 15.9346C82.9141 16.0448 83.0382 16.2241 83.0382 16.4722C83.0382 16.6652 82.9417 16.8995 82.7487 17.1753C82.5006 17.5337 82.1835 18.1127 81.7975 18.9122C81.4391 19.7118 81.0807 20.594 80.7222 21.559C80.3914 22.4964 80.1019 23.3787 79.8538 24.2058C79.6332 25.0054 79.5229 25.612 79.5229 26.0255C79.5229 26.3839 79.6194 26.5218 79.8124 26.4391C79.8675 26.4391 80.0054 26.2874 80.226 25.9842C80.4465 25.6809 80.5706 25.4879 80.5982 25.4052C81.894 23.9163 83.0796 22.6343 84.1548 21.559C85.2577 20.4562 86.3743 19.5464 87.5047 18.8295C88.6627 18.0851 89.9861 17.5061 91.4749 17.0925C91.8609 16.9823 92.1228 17.1477 92.2607 17.5888C92.4261 18.0024 92.5226 18.5814 92.5502 19.3258C92.5777 20.0426 92.5915 20.8422 92.5915 21.7245C92.6191 22.5792 92.688 23.4201 92.7983 24.2472C92.9362 25.0468 93.1705 25.7222 93.5014 26.2737C93.8322 26.7975 94.3285 27.1008 94.9902 27.1835C95.4589 27.2386 96.0103 27.1284 96.6445 26.8526C97.2786 26.5769 97.9127 26.1634 98.5468 25.612C99.181 25.0605 99.7048 24.4126 100.118 23.6682C100.532 22.9238 100.739 22.1242 100.739 21.2695C100.739 20.8284 100.684 20.3873 100.573 19.9461C100.463 19.505 100.27 19.0639 99.9943 18.6227C99.8565 18.3194 99.7048 18.154 99.5394 18.1265C99.4016 18.0713 99.2499 18.0575 99.0845 18.0851C98.9466 18.0851 98.795 18.0162 98.6296 17.8783C98.2987 17.6302 98.3814 17.4234 98.8777 17.258C99.374 17.0925 99.9667 17.0098 100.656 17.0098C101.18 17.0098 101.69 17.065 102.186 17.1753C102.682 17.2855 103.041 17.4785 103.261 17.7542C103.51 18.03 103.73 18.4711 103.923 19.0776C104.116 19.6842 104.213 20.3597 104.213 21.1041C104.213 21.8485 104.075 22.6343 103.799 23.4614C103.551 24.261 103.096 25.0054 102.434 25.6947C101.8 26.3839 100.918 26.9767 99.7875 27.473C98.6847 27.9417 97.2648 28.2174 95.5278 28.3001C94.5628 28.3553 93.7633 28.1761 93.1292 27.7625C92.495 27.3214 91.985 26.7424 91.599 26.0255C91.213 25.3087 90.9097 24.5505 90.6891 23.7509C90.4686 22.9238 90.2894 22.1518 90.1515 21.435C90.0136 20.7181 89.8896 20.1391 89.7793 19.698C89.669 19.2293 89.5174 19.0225 89.3244 19.0776C88.6351 19.2431 87.8769 19.6842 87.0498 20.4011C86.2226 21.0903 85.3817 21.9588 84.527 23.0065C83.6999 24.0266 82.8728 25.1157 82.0457 26.2737C81.2461 27.4316 80.5155 28.5483 79.8538 29.6235Z" fill="white"/>
<path d="M70.8958 29.9553C70.6201 29.9553 70.5236 29.6934 70.6064 29.1695C70.7442 28.37 70.8407 27.5704 70.8958 26.7708C70.9786 25.9437 71.0199 25.2269 71.0199 24.6203C71.0199 24.0413 70.9786 23.5726 70.8958 23.2142C70.8407 22.8282 70.7166 22.6352 70.5236 22.6352C70.4409 22.6352 70.3169 22.6766 70.1514 22.7593C70.0136 22.842 69.7654 23.0074 69.407 23.2555C68.8005 23.6967 68.0147 24.1792 67.0497 24.703C66.1123 25.2269 65.0922 25.7507 63.9893 26.2746C62.8865 26.7984 61.8112 27.2947 60.7635 27.7634C59.7158 28.2321 58.7784 28.6594 57.9513 29.0454C57.4826 29.2384 56.945 29.3349 56.3384 29.3349C55.6491 29.3349 55.015 29.2247 54.436 29.0041C53.8846 28.7559 53.6089 28.3837 53.6089 27.8875C53.6089 27.1982 53.857 26.2746 54.3533 25.1166C54.8496 23.9586 55.6078 22.7041 56.6279 21.3532C57.648 19.9746 58.9163 18.6512 60.4327 17.3829C61.4528 16.5282 62.5281 15.8528 63.6585 15.3565C64.7889 14.8602 66.0158 14.6121 67.3392 14.6121C68.0285 14.6121 68.7591 14.6948 69.5311 14.8602C70.3031 15.0256 70.951 15.3013 71.4748 15.6873C72.0263 16.0733 72.302 16.611 72.302 17.3002C72.302 17.7965 72.1779 18.1549 71.9298 18.3755C71.7092 18.5685 71.4748 18.665 71.2267 18.665C70.8959 18.665 70.4823 18.5271 69.986 18.2514C69.5173 17.9757 68.8832 17.8379 68.0836 17.8379C67.5046 17.8379 66.9119 17.9344 66.3053 18.1274C65.6987 18.2928 65.0232 18.5823 64.2788 18.9958C63.0106 19.7127 61.8802 20.4985 60.8876 21.3532C59.8951 22.1803 59.1093 22.9936 58.5303 23.7932C57.9789 24.5927 57.7032 25.282 57.7032 25.861C57.7032 26.2746 57.841 26.6054 58.1167 26.8536C58.42 27.1017 58.7922 27.2258 59.2334 27.2258C59.9226 27.2258 60.7222 27.019 61.632 26.6054C62.5419 26.1643 63.4103 25.7231 64.2375 25.282C65.9469 24.3722 67.2427 23.6002 68.125 22.966C69.0348 22.3319 69.7241 21.8356 70.1928 21.4772C70.6891 21.0912 71.1578 20.8293 71.5989 20.6914C71.6816 20.6639 71.8333 20.6501 72.0538 20.6501C72.495 20.6501 72.9775 20.7466 73.5013 20.9396C74.0527 21.105 74.3146 21.2704 74.2871 21.4359C74.2871 21.9321 74.1216 22.5111 73.7908 23.1728C73.4599 23.807 73.1842 24.5652 72.9637 25.4474C72.8258 26.054 72.7293 26.6054 72.6742 27.1017C72.6466 27.5704 72.5087 28.2045 72.2606 29.0041C72.233 29.1144 72.0538 29.2936 71.723 29.5417C71.3921 29.8174 71.1164 29.9553 70.8958 29.9553Z" fill="white"/>
<path d="M36.0154 21.0216C35.4915 21.0216 35.0642 20.994 34.7333 20.9389C34.43 20.8837 34.1957 20.8286 34.0303 20.7734C33.5616 20.608 33.3272 20.4701 33.3272 20.3599C33.3272 20.1117 34.7333 19.9877 37.5456 19.9877C39.062 19.9877 40.5094 19.7395 41.888 19.2432C43.2665 18.747 44.521 18.1128 45.6514 17.3409C46.8094 16.5413 47.7882 15.7004 48.5877 14.8181C49.3873 13.9083 49.9525 13.0536 50.2833 12.254C50.4763 11.7577 50.5728 11.3442 50.5728 11.0133C50.5728 10.0759 50.1593 9.24879 49.3321 8.53194C48.5326 7.78753 47.4435 7.19475 46.065 6.75362C44.6864 6.31248 43.1149 6.09191 41.3504 6.09191C39.8339 6.09191 38.2073 6.2987 36.4703 6.71226C34.7609 7.09825 33.0515 7.74617 31.3421 8.65601C31.1491 8.76629 30.901 8.84901 30.5977 8.90415C30.2944 8.93172 29.9773 8.9455 29.6465 8.9455C29.2329 8.9455 28.8469 8.90415 28.4885 8.82143C28.1577 8.73872 27.9922 8.61465 27.9922 8.44923C27.9922 8.22866 28.2542 7.98052 28.778 7.70481C30.6253 6.71226 32.5552 5.99542 34.5679 5.55428C36.5806 5.11315 38.5519 4.89258 40.4819 4.89258C42.3567 4.89258 44.135 5.07179 45.8168 5.43021C47.4987 5.78863 48.9875 6.28491 50.2833 6.91904C51.5792 7.5256 52.5855 8.24245 53.3023 9.06957C54.0468 9.86913 54.419 10.7238 54.419 11.6337C54.419 12.1299 54.2949 12.6262 54.0468 13.1225C53.5505 14.1702 52.6406 15.1903 51.3172 16.1829C49.9938 17.1479 48.4085 18.0026 46.5613 18.747C44.714 19.4914 42.7565 20.0704 40.6887 20.4839C39.641 20.6769 38.7311 20.8148 37.9591 20.8975C37.2147 20.9802 36.5668 21.0216 36.0154 21.0216ZM27.7441 31.8569C27.5235 31.8569 27.2616 31.6639 26.9583 31.278C26.655 30.9195 26.3931 30.2027 26.1726 29.1274C26.145 28.962 26.1174 28.7966 26.0898 28.6311C26.0898 28.4381 26.0898 28.2452 26.0898 28.0522C26.0898 27.1147 26.2139 26.0119 26.4621 24.7436C26.7378 23.4478 27.0962 22.0968 27.5373 20.6907C27.9785 19.257 28.4609 17.8509 28.9848 16.4724C29.5086 15.0938 30.0463 13.8256 30.5977 12.6676C31.1491 11.5096 31.6592 10.5722 32.1279 9.85534C32.5139 9.22121 33.0653 8.79386 33.7821 8.5733C34.5265 8.32516 35.2296 8.20109 35.8913 8.20109C36.5254 8.20109 37.0493 8.2838 37.4628 8.44923C37.8764 8.61465 37.9867 8.80765 37.7937 9.02822C36.8839 10.1586 35.9464 11.5096 34.9815 13.0811C34.0165 14.6251 33.1066 16.2794 32.2519 18.0439C31.3972 19.7809 30.639 21.5041 29.9773 23.2135C29.3156 24.9229 28.8194 26.4944 28.4885 27.9281C28.1577 29.3618 28.0474 30.5473 28.1577 31.4847C28.1577 31.7329 28.0198 31.8569 27.7441 31.8569Z" fill="white"/>
</svg>
