<!-- Generated by IcoMoon.io -->
<svg version="1.1" xmlns="http://www.w3.org/2000/svg" width="1024" height="1024" viewBox="0 0 1024 1024">
<g id="icomoon-ignore">
</g>
<path fill="#fff" d="M1023.945 763.447v201.161c0.007 14.404-5.455 28.269-15.271 38.81-9.817 10.534-23.265 16.957-37.635 17.968-24.856 1.707-45.165 2.615-60.867 2.615-502.699 0-910.172-407.495-910.172-910.222 0-15.701 0.853-36.011 2.617-60.871 1.008-14.368 7.428-27.818 17.965-37.637s24.405-15.276 38.807-15.269h201.148c7.056-0.007 13.863 2.609 19.098 7.34s8.526 11.239 9.231 18.26c1.309 13.084 2.503 23.495 3.641 31.403 11.306 78.901 34.473 155.638 68.718 227.613 5.405 11.377 1.877 24.974-8.362 32.256l-122.759 87.723c75.058 174.902 214.433 314.288 389.325 389.347l87.603-122.539c3.584-5.006 8.806-8.597 14.766-10.146 5.953-1.549 12.268-0.958 17.831 1.669 71.96 34.186 148.671 57.294 227.54 68.551 7.912 1.14 18.323 2.335 31.293 3.639 7.004 0.724 13.503 4.014 18.22 9.25s7.27 12.035 7.264 19.081z"></path>
</svg>
